<svg xmlns:svg="http://www.w3.org/2000/svg" xmlns="http://www.w3.org/2000/svg" width="304" height="38" viewBox="0 0 800 100" preserveAspectRatio="xMidYMid" version="1.1">
  <g>
    <rect class="bk" height="100" width="100" y="0" x="0" style="fill:none"/>
    <circle transform="matrix(1.0025063,0,0,1.0025063,84.085214,50)" style="fill:#3c3c3c;fill-opacity:1" d="M 8,0 C 8,4.418278 4.418278,8 0,8 -4.418278,8 -8,4.418278 -8,0 c 0,-4.418278 3.581722,-8 8,-8 4.418278,0 8,3.581722 8,8 z" r="8" cy="0" cx="0"/>
    <circle transform="matrix(0.708879,0.708879,-0.708879,0.708879,74.101887,74.101887)" style="fill:#5a5a5a;fill-opacity:1" d="M 8,0 C 8,4.418278 4.418278,8 0,8 -4.418278,8 -8,4.418278 -8,0 c 0,-4.418278 3.581722,-8 8,-8 4.418278,0 8,3.581722 8,8 z" r="8" cy="0" cx="0"/>
    <circle transform="matrix(0,1.0025063,-1.0025063,0,50,84.085214)" style="fill:#787878;fill-opacity:1" d="M 8,0 C 8,4.418278 4.418278,8 0,8 -4.418278,8 -8,4.418278 -8,0 c 0,-4.418278 3.581722,-8 8,-8 4.418278,0 8,3.581722 8,8 z" r="8" cy="0" cx="0"/>
    <circle transform="matrix(-0.708879,0.708879,-0.708879,-0.708879,25.898113,74.101887)" style="fill:#969696;fill-opacity:1" d="M 8,0 C 8,4.418278 4.418278,8 0,8 -4.418278,8 -8,4.418278 -8,0 c 0,-4.418278 3.581722,-8 8,-8 4.418278,0 8,3.581722 8,8 z" r="8" cy="0" cx="0"/>
    <circle transform="matrix(-1.0025063,0,0,-1.0025063,15.914786,50)" style="fill:#b4b4b4;fill-opacity:1" d="M 8,0 C 8,4.418278 4.418278,8 0,8 -4.418278,8 -8,4.418278 -8,0 c 0,-4.418278 3.581722,-8 8,-8 4.418278,0 8,3.581722 8,8 z" r="8" cy="0" cx="0"/>
    <circle transform="matrix(-0.708879,-0.708879,0.708879,-0.708879,25.898113,25.898113)" style="fill:#d2d2d2;fill-opacity:1" d="M 8,0 C 8,4.418278 4.418278,8 0,8 -4.418278,8 -8,4.418278 -8,0 c 0,-4.418278 3.581722,-8 8,-8 4.418278,0 8,3.581722 8,8 z" r="8" cy="0" cx="0"/>
    <circle transform="matrix(0,-1.0025063,1.0025063,0,50,15.914786)" style="fill:#000000" d="M 8,0 C 8,4.418278 4.418278,8 0,8 -4.418278,8 -8,4.418278 -8,0 c 0,-4.418278 3.581722,-8 8,-8 4.418278,0 8,3.581722 8,8 z" r="8" cy="0" cx="0"/>
    <circle transform="matrix(0.708879,-0.708879,0.708879,0.708879,74.101887,25.898113)" style="fill:#1e1e1e;fill-opacity:1" d="M 8,0 C 8,4.418278 4.418278,8 0,8 -4.418278,8 -8,4.418278 -8,0 c 0,-4.418278 3.581722,-8 8,-8 4.418278,0 8,3.581722 8,8 z" r="8" cy="0" cx="0"/>
  </g>
  <rect style="fill:none" x="35.4" y="106.1" width="70.7" height="70.7" class="bk" transform="matrix(0.70710678,-0.70710679,0.70710678,0.70710679,0,0)"/>
  <circle cx="0" cy="0" r="8" d="M 8,0 C 8,4.418278 4.418278,8 0,8 -4.418278,8 -8,4.418278 -8,0 c 0,-4.418278 3.581722,-8 8,-8 4.418278,0 8,3.581722 8,8 z" style="fill:#3c3c3c;fill-opacity:1" transform="matrix(0.708879,-0.708879,0.708879,0.708879,174.10189,25.898114)"/>
  <circle cx="0" cy="0" r="8" d="M 8,0 C 8,4.418278 4.418278,8 0,8 -4.418278,8 -8,4.418278 -8,0 c 0,-4.418278 3.581722,-8 8,-8 4.418278,0 8,3.581722 8,8 z" style="fill:#5a5a5a;fill-opacity:1" transform="matrix(1.0025063,0,0,1.0025063,184.08522,50)"/>
  <circle cx="0" cy="0" r="8" d="M 8,0 C 8,4.418278 4.418278,8 0,8 -4.418278,8 -8,4.418278 -8,0 c 0,-4.418278 3.581722,-8 8,-8 4.418278,0 8,3.581722 8,8 z" style="fill:#787878;fill-opacity:1" transform="matrix(0.708879,0.708879,-0.708879,0.708879,174.10189,74.101886)"/>
  <circle cx="0" cy="0" r="8" d="M 8,0 C 8,4.418278 4.418278,8 0,8 -4.418278,8 -8,4.418278 -8,0 c 0,-4.418278 3.581722,-8 8,-8 4.418278,0 8,3.581722 8,8 z" style="fill:#969696;fill-opacity:1" transform="matrix(0,1.0025063,-1.0025063,0,150,84.085215)"/>
  <circle cx="0" cy="0" r="8" d="M 8,0 C 8,4.418278 4.418278,8 0,8 -4.418278,8 -8,4.418278 -8,0 c 0,-4.418278 3.581722,-8 8,-8 4.418278,0 8,3.581722 8,8 z" style="fill:#b4b4b4;fill-opacity:1" transform="matrix(-0.708879,0.708879,-0.708879,-0.708879,125.89811,74.101886)"/>
  <circle cx="0" cy="0" r="8" d="M 8,0 C 8,4.418278 4.418278,8 0,8 -4.418278,8 -8,4.418278 -8,0 c 0,-4.418278 3.581722,-8 8,-8 4.418278,0 8,3.581722 8,8 z" style="fill:#d2d2d2;fill-opacity:1" transform="matrix(-1.0025063,0,0,-1.0025063,115.91478,50)"/>
  <circle cx="0" cy="0" r="8" d="M 8,0 C 8,4.418278 4.418278,8 0,8 -4.418278,8 -8,4.418278 -8,0 c 0,-4.418278 3.581722,-8 8,-8 4.418278,0 8,3.581722 8,8 z" style="fill:#000000" transform="matrix(-0.708879,-0.708879,0.708879,-0.708879,125.89811,25.898114)"/>
  <circle cx="0" cy="0" r="8" d="M 8,0 C 8,4.418278 4.418278,8 0,8 -4.418278,8 -8,4.418278 -8,0 c 0,-4.418278 3.581722,-8 8,-8 4.418278,0 8,3.581722 8,8 z" style="fill:#1e1e1e;fill-opacity:1" transform="matrix(0,-1.0025063,1.0025063,0,150,15.914785)"/>
  <g transform="matrix(0,-1,1,0,200,100)">
    <rect class="bk" height="100" width="100" y="0" x="0" style="fill:none"/>
    <circle transform="matrix(1.0025063,0,0,1.0025063,84.085214,50)" style="fill:#3c3c3c;fill-opacity:1" d="M 8,0 C 8,4.418278 4.418278,8 0,8 -4.418278,8 -8,4.418278 -8,0 c 0,-4.418278 3.581722,-8 8,-8 4.418278,0 8,3.581722 8,8 z" r="8" cy="0" cx="0"/>
    <circle transform="matrix(0.708879,0.708879,-0.708879,0.708879,74.101887,74.101887)" style="fill:#5a5a5a;fill-opacity:1" d="M 8,0 C 8,4.418278 4.418278,8 0,8 -4.418278,8 -8,4.418278 -8,0 c 0,-4.418278 3.581722,-8 8,-8 4.418278,0 8,3.581722 8,8 z" r="8" cy="0" cx="0"/>
    <circle transform="matrix(0,1.0025063,-1.0025063,0,50,84.085214)" style="fill:#787878;fill-opacity:1" d="M 8,0 C 8,4.418278 4.418278,8 0,8 -4.418278,8 -8,4.418278 -8,0 c 0,-4.418278 3.581722,-8 8,-8 4.418278,0 8,3.581722 8,8 z" r="8" cy="0" cx="0"/>
    <circle transform="matrix(-0.708879,0.708879,-0.708879,-0.708879,25.898113,74.101887)" style="fill:#969696;fill-opacity:1" d="M 8,0 C 8,4.418278 4.418278,8 0,8 -4.418278,8 -8,4.418278 -8,0 c 0,-4.418278 3.581722,-8 8,-8 4.418278,0 8,3.581722 8,8 z" r="8" cy="0" cx="0"/>
    <circle transform="matrix(-1.0025063,0,0,-1.0025063,15.914786,50)" style="fill:#b4b4b4;fill-opacity:1" d="M 8,0 C 8,4.418278 4.418278,8 0,8 -4.418278,8 -8,4.418278 -8,0 c 0,-4.418278 3.581722,-8 8,-8 4.418278,0 8,3.581722 8,8 z" r="8" cy="0" cx="0"/>
    <circle transform="matrix(-0.708879,-0.708879,0.708879,-0.708879,25.898113,25.898113)" style="fill:#d2d2d2;fill-opacity:1" d="M 8,0 C 8,4.418278 4.418278,8 0,8 -4.418278,8 -8,4.418278 -8,0 c 0,-4.418278 3.581722,-8 8,-8 4.418278,0 8,3.581722 8,8 z" r="8" cy="0" cx="0"/>
    <circle transform="matrix(0,-1.0025063,1.0025063,0,50,15.914786)" style="fill:#000000" d="M 8,0 C 8,4.418278 4.418278,8 0,8 -4.418278,8 -8,4.418278 -8,0 c 0,-4.418278 3.581722,-8 8,-8 4.418278,0 8,3.581722 8,8 z" r="8" cy="0" cx="0"/>
    <circle transform="matrix(0.708879,-0.708879,0.708879,0.708879,74.101887,25.898113)" style="fill:#1e1e1e;fill-opacity:1" d="M 8,0 C 8,4.418278 4.418278,8 0,8 -4.418278,8 -8,4.418278 -8,0 c 0,-4.418278 3.581722,-8 8,-8 4.418278,0 8,3.581722 8,8 z" r="8" cy="0" cx="0"/>
  </g>
  <g transform="matrix(-0.70710678,-0.70710678,0.70710678,-0.70710678,350,120.71068)">
    <rect class="bk" height="100" width="100" y="0" x="0" style="fill:none"/>
    <circle transform="matrix(1.0025063,0,0,1.0025063,84.085214,50)" style="fill:#3c3c3c;fill-opacity:1" d="M 8,0 C 8,4.418278 4.418278,8 0,8 -4.418278,8 -8,4.418278 -8,0 c 0,-4.418278 3.581722,-8 8,-8 4.418278,0 8,3.581722 8,8 z" r="8" cy="0" cx="0"/>
    <circle transform="matrix(0.708879,0.708879,-0.708879,0.708879,74.101887,74.101887)" style="fill:#5a5a5a;fill-opacity:1" d="M 8,0 C 8,4.418278 4.418278,8 0,8 -4.418278,8 -8,4.418278 -8,0 c 0,-4.418278 3.581722,-8 8,-8 4.418278,0 8,3.581722 8,8 z" r="8" cy="0" cx="0"/>
    <circle transform="matrix(0,1.0025063,-1.0025063,0,50,84.085214)" style="fill:#787878;fill-opacity:1" d="M 8,0 C 8,4.418278 4.418278,8 0,8 -4.418278,8 -8,4.418278 -8,0 c 0,-4.418278 3.581722,-8 8,-8 4.418278,0 8,3.581722 8,8 z" r="8" cy="0" cx="0"/>
    <circle transform="matrix(-0.708879,0.708879,-0.708879,-0.708879,25.898113,74.101887)" style="fill:#969696;fill-opacity:1" d="M 8,0 C 8,4.418278 4.418278,8 0,8 -4.418278,8 -8,4.418278 -8,0 c 0,-4.418278 3.581722,-8 8,-8 4.418278,0 8,3.581722 8,8 z" r="8" cy="0" cx="0"/>
    <circle transform="matrix(-1.0025063,0,0,-1.0025063,15.914786,50)" style="fill:#b4b4b4;fill-opacity:1" d="M 8,0 C 8,4.418278 4.418278,8 0,8 -4.418278,8 -8,4.418278 -8,0 c 0,-4.418278 3.581722,-8 8,-8 4.418278,0 8,3.581722 8,8 z" r="8" cy="0" cx="0"/>
    <circle transform="matrix(-0.708879,-0.708879,0.708879,-0.708879,25.898113,25.898113)" style="fill:#d2d2d2;fill-opacity:1" d="M 8,0 C 8,4.418278 4.418278,8 0,8 -4.418278,8 -8,4.418278 -8,0 c 0,-4.418278 3.581722,-8 8,-8 4.418278,0 8,3.581722 8,8 z" r="8" cy="0" cx="0"/>
    <circle transform="matrix(0,-1.0025063,1.0025063,0,50,15.914786)" style="fill:#000000" d="M 8,0 C 8,4.418278 4.418278,8 0,8 -4.418278,8 -8,4.418278 -8,0 c 0,-4.418278 3.581722,-8 8,-8 4.418278,0 8,3.581722 8,8 z" r="8" cy="0" cx="0"/>
    <circle transform="matrix(0.708879,-0.708879,0.708879,0.708879,74.101887,25.898113)" style="fill:#1e1e1e;fill-opacity:1" d="M 8,0 C 8,4.418278 4.418278,8 0,8 -4.418278,8 -8,4.418278 -8,0 c 0,-4.418278 3.581722,-8 8,-8 4.418278,0 8,3.581722 8,8 z" r="8" cy="0" cx="0"/>
  </g>
  <g transform="matrix(-1,0,0,-1,500,100)">
    <rect class="bk" height="100" width="100" y="0" x="0" style="fill:none"/>
    <circle transform="matrix(1.0025063,0,0,1.0025063,84.085214,50)" style="fill:#3c3c3c;fill-opacity:1" d="M 8,0 C 8,4.418278 4.418278,8 0,8 -4.418278,8 -8,4.418278 -8,0 c 0,-4.418278 3.581722,-8 8,-8 4.418278,0 8,3.581722 8,8 z" r="8" cy="0" cx="0"/>
    <circle transform="matrix(0.708879,0.708879,-0.708879,0.708879,74.101887,74.101887)" style="fill:#5a5a5a;fill-opacity:1" d="M 8,0 C 8,4.418278 4.418278,8 0,8 -4.418278,8 -8,4.418278 -8,0 c 0,-4.418278 3.581722,-8 8,-8 4.418278,0 8,3.581722 8,8 z" r="8" cy="0" cx="0"/>
    <circle transform="matrix(0,1.0025063,-1.0025063,0,50,84.085214)" style="fill:#787878;fill-opacity:1" d="M 8,0 C 8,4.418278 4.418278,8 0,8 -4.418278,8 -8,4.418278 -8,0 c 0,-4.418278 3.581722,-8 8,-8 4.418278,0 8,3.581722 8,8 z" r="8" cy="0" cx="0"/>
    <circle transform="matrix(-0.708879,0.708879,-0.708879,-0.708879,25.898113,74.101887)" style="fill:#969696;fill-opacity:1" d="M 8,0 C 8,4.418278 4.418278,8 0,8 -4.418278,8 -8,4.418278 -8,0 c 0,-4.418278 3.581722,-8 8,-8 4.418278,0 8,3.581722 8,8 z" r="8" cy="0" cx="0"/>
    <circle transform="matrix(-1.0025063,0,0,-1.0025063,15.914786,50)" style="fill:#b4b4b4;fill-opacity:1" d="M 8,0 C 8,4.418278 4.418278,8 0,8 -4.418278,8 -8,4.418278 -8,0 c 0,-4.418278 3.581722,-8 8,-8 4.418278,0 8,3.581722 8,8 z" r="8" cy="0" cx="0"/>
    <circle transform="matrix(-0.708879,-0.708879,0.708879,-0.708879,25.898113,25.898113)" style="fill:#d2d2d2;fill-opacity:1" d="M 8,0 C 8,4.418278 4.418278,8 0,8 -4.418278,8 -8,4.418278 -8,0 c 0,-4.418278 3.581722,-8 8,-8 4.418278,0 8,3.581722 8,8 z" r="8" cy="0" cx="0"/>
    <circle transform="matrix(0,-1.0025063,1.0025063,0,50,15.914786)" style="fill:#000000" d="M 8,0 C 8,4.418278 4.418278,8 0,8 -4.418278,8 -8,4.418278 -8,0 c 0,-4.418278 3.581722,-8 8,-8 4.418278,0 8,3.581722 8,8 z" r="8" cy="0" cx="0"/>
    <circle transform="matrix(0.708879,-0.708879,0.708879,0.708879,74.101887,25.898113)" style="fill:#1e1e1e;fill-opacity:1" d="M 8,0 C 8,4.418278 4.418278,8 0,8 -4.418278,8 -8,4.418278 -8,0 c 0,-4.418278 3.581722,-8 8,-8 4.418278,0 8,3.581722 8,8 z" r="8" cy="0" cx="0"/>
  </g>
  <g transform="matrix(-0.70710678,0.70710678,-0.70710678,-0.70710678,620.71068,50)">
    <rect class="bk" height="100" width="100" y="0" x="0" style="fill:none"/>
    <circle transform="matrix(1.0025063,0,0,1.0025063,84.085214,50)" style="fill:#3c3c3c;fill-opacity:1" d="M 8,0 C 8,4.418278 4.418278,8 0,8 -4.418278,8 -8,4.418278 -8,0 c 0,-4.418278 3.581722,-8 8,-8 4.418278,0 8,3.581722 8,8 z" r="8" cy="0" cx="0"/>
    <circle transform="matrix(0.708879,0.708879,-0.708879,0.708879,74.101887,74.101887)" style="fill:#5a5a5a;fill-opacity:1" d="M 8,0 C 8,4.418278 4.418278,8 0,8 -4.418278,8 -8,4.418278 -8,0 c 0,-4.418278 3.581722,-8 8,-8 4.418278,0 8,3.581722 8,8 z" r="8" cy="0" cx="0"/>
    <circle transform="matrix(0,1.0025063,-1.0025063,0,50,84.085214)" style="fill:#787878;fill-opacity:1" d="M 8,0 C 8,4.418278 4.418278,8 0,8 -4.418278,8 -8,4.418278 -8,0 c 0,-4.418278 3.581722,-8 8,-8 4.418278,0 8,3.581722 8,8 z" r="8" cy="0" cx="0"/>
    <circle transform="matrix(-0.708879,0.708879,-0.708879,-0.708879,25.898113,74.101887)" style="fill:#969696;fill-opacity:1" d="M 8,0 C 8,4.418278 4.418278,8 0,8 -4.418278,8 -8,4.418278 -8,0 c 0,-4.418278 3.581722,-8 8,-8 4.418278,0 8,3.581722 8,8 z" r="8" cy="0" cx="0"/>
    <circle transform="matrix(-1.0025063,0,0,-1.0025063,15.914786,50)" style="fill:#b4b4b4;fill-opacity:1" d="M 8,0 C 8,4.418278 4.418278,8 0,8 -4.418278,8 -8,4.418278 -8,0 c 0,-4.418278 3.581722,-8 8,-8 4.418278,0 8,3.581722 8,8 z" r="8" cy="0" cx="0"/>
    <circle transform="matrix(-0.708879,-0.708879,0.708879,-0.708879,25.898113,25.898113)" style="fill:#d2d2d2;fill-opacity:1" d="M 8,0 C 8,4.418278 4.418278,8 0,8 -4.418278,8 -8,4.418278 -8,0 c 0,-4.418278 3.581722,-8 8,-8 4.418278,0 8,3.581722 8,8 z" r="8" cy="0" cx="0"/>
    <circle transform="matrix(0,-1.0025063,1.0025063,0,50,15.914786)" style="fill:#000000" d="M 8,0 C 8,4.418278 4.418278,8 0,8 -4.418278,8 -8,4.418278 -8,0 c 0,-4.418278 3.581722,-8 8,-8 4.418278,0 8,3.581722 8,8 z" r="8" cy="0" cx="0"/>
    <circle transform="matrix(0.708879,-0.708879,0.708879,0.708879,74.101887,25.898113)" style="fill:#1e1e1e;fill-opacity:1" d="M 8,0 C 8,4.418278 4.418278,8 0,8 -4.418278,8 -8,4.418278 -8,0 c 0,-4.418278 3.581722,-8 8,-8 4.418278,0 8,3.581722 8,8 z" r="8" cy="0" cx="0"/>
  </g>
  <g transform="matrix(0,1,-1,0,700,8.3901554e-8)">
    <rect class="bk" height="100" width="100" y="0" x="0" style="fill:none"/>
    <circle transform="matrix(1.0025063,0,0,1.0025063,84.085214,50)" style="fill:#3c3c3c;fill-opacity:1" d="M 8,0 C 8,4.418278 4.418278,8 0,8 -4.418278,8 -8,4.418278 -8,0 c 0,-4.418278 3.581722,-8 8,-8 4.418278,0 8,3.581722 8,8 z" r="8" cy="0" cx="0"/>
    <circle transform="matrix(0.708879,0.708879,-0.708879,0.708879,74.101887,74.101887)" style="fill:#5a5a5a;fill-opacity:1" d="M 8,0 C 8,4.418278 4.418278,8 0,8 -4.418278,8 -8,4.418278 -8,0 c 0,-4.418278 3.581722,-8 8,-8 4.418278,0 8,3.581722 8,8 z" r="8" cy="0" cx="0"/>
    <circle transform="matrix(0,1.0025063,-1.0025063,0,50,84.085214)" style="fill:#787878;fill-opacity:1" d="M 8,0 C 8,4.418278 4.418278,8 0,8 -4.418278,8 -8,4.418278 -8,0 c 0,-4.418278 3.581722,-8 8,-8 4.418278,0 8,3.581722 8,8 z" r="8" cy="0" cx="0"/>
    <circle transform="matrix(-0.708879,0.708879,-0.708879,-0.708879,25.898113,74.101887)" style="fill:#969696;fill-opacity:1" d="M 8,0 C 8,4.418278 4.418278,8 0,8 -4.418278,8 -8,4.418278 -8,0 c 0,-4.418278 3.581722,-8 8,-8 4.418278,0 8,3.581722 8,8 z" r="8" cy="0" cx="0"/>
    <circle transform="matrix(-1.0025063,0,0,-1.0025063,15.914786,50)" style="fill:#b4b4b4;fill-opacity:1" d="M 8,0 C 8,4.418278 4.418278,8 0,8 -4.418278,8 -8,4.418278 -8,0 c 0,-4.418278 3.581722,-8 8,-8 4.418278,0 8,3.581722 8,8 z" r="8" cy="0" cx="0"/>
    <circle transform="matrix(-0.708879,-0.708879,0.708879,-0.708879,25.898113,25.898113)" style="fill:#d2d2d2;fill-opacity:1" d="M 8,0 C 8,4.418278 4.418278,8 0,8 -4.418278,8 -8,4.418278 -8,0 c 0,-4.418278 3.581722,-8 8,-8 4.418278,0 8,3.581722 8,8 z" r="8" cy="0" cx="0"/>
    <circle transform="matrix(0,-1.0025063,1.0025063,0,50,15.914786)" style="fill:#000000" d="M 8,0 C 8,4.418278 4.418278,8 0,8 -4.418278,8 -8,4.418278 -8,0 c 0,-4.418278 3.581722,-8 8,-8 4.418278,0 8,3.581722 8,8 z" r="8" cy="0" cx="0"/>
    <circle transform="matrix(0.708879,-0.708879,0.708879,0.708879,74.101887,25.898113)" style="fill:#1e1e1e;fill-opacity:1" d="M 8,0 C 8,4.418278 4.418278,8 0,8 -4.418278,8 -8,4.418278 -8,0 c 0,-4.418278 3.581722,-8 8,-8 4.418278,0 8,3.581722 8,8 z" r="8" cy="0" cx="0"/>
  </g>
  <g transform="matrix(0.70710678,0.70710678,-0.70710678,0.70710678,750,-20.710678)">
    <rect class="bk" height="100" width="100" y="0" x="0" style="fill:none"/>
    <circle transform="matrix(1.0025063,0,0,1.0025063,84.085214,50)" style="fill:#3c3c3c;fill-opacity:1" d="M 8,0 C 8,4.418278 4.418278,8 0,8 -4.418278,8 -8,4.418278 -8,0 c 0,-4.418278 3.581722,-8 8,-8 4.418278,0 8,3.581722 8,8 z" r="8" cy="0" cx="0"/>
    <circle transform="matrix(0.708879,0.708879,-0.708879,0.708879,74.101887,74.101887)" style="fill:#5a5a5a;fill-opacity:1" d="M 8,0 C 8,4.418278 4.418278,8 0,8 -4.418278,8 -8,4.418278 -8,0 c 0,-4.418278 3.581722,-8 8,-8 4.418278,0 8,3.581722 8,8 z" r="8" cy="0" cx="0"/>
    <circle transform="matrix(0,1.0025063,-1.0025063,0,50,84.085214)" style="fill:#787878;fill-opacity:1" d="M 8,0 C 8,4.418278 4.418278,8 0,8 -4.418278,8 -8,4.418278 -8,0 c 0,-4.418278 3.581722,-8 8,-8 4.418278,0 8,3.581722 8,8 z" r="8" cy="0" cx="0"/>
    <circle transform="matrix(-0.708879,0.708879,-0.708879,-0.708879,25.898113,74.101887)" style="fill:#969696;fill-opacity:1" d="M 8,0 C 8,4.418278 4.418278,8 0,8 -4.418278,8 -8,4.418278 -8,0 c 0,-4.418278 3.581722,-8 8,-8 4.418278,0 8,3.581722 8,8 z" r="8" cy="0" cx="0"/>
    <circle transform="matrix(-1.0025063,0,0,-1.0025063,15.914786,50)" style="fill:#b4b4b4;fill-opacity:1" d="M 8,0 C 8,4.418278 4.418278,8 0,8 -4.418278,8 -8,4.418278 -8,0 c 0,-4.418278 3.581722,-8 8,-8 4.418278,0 8,3.581722 8,8 z" r="8" cy="0" cx="0"/>
    <circle transform="matrix(-0.708879,-0.708879,0.708879,-0.708879,25.898113,25.898113)" style="fill:#d2d2d2;fill-opacity:1" d="M 8,0 C 8,4.418278 4.418278,8 0,8 -4.418278,8 -8,4.418278 -8,0 c 0,-4.418278 3.581722,-8 8,-8 4.418278,0 8,3.581722 8,8 z" r="8" cy="0" cx="0"/>
    <circle transform="matrix(0,-1.0025063,1.0025063,0,50,15.914786)" style="fill:#000000" d="M 8,0 C 8,4.418278 4.418278,8 0,8 -4.418278,8 -8,4.418278 -8,0 c 0,-4.418278 3.581722,-8 8,-8 4.418278,0 8,3.581722 8,8 z" r="8" cy="0" cx="0"/>
    <circle transform="matrix(0.708879,-0.708879,0.708879,0.708879,74.101887,25.898113)" style="fill:#1e1e1e;fill-opacity:1" d="M 8,0 C 8,4.418278 4.418278,8 0,8 -4.418278,8 -8,4.418278 -8,0 c 0,-4.418278 3.581722,-8 8,-8 4.418278,0 8,3.581722 8,8 z" r="8" cy="0" cx="0"/>
  </g>
</svg>
